<svg xmlns="http://www.w3.org/2000/svg" viewBox="0 0 328 96" role="img" aria-label="Elysium CRM" focusable="false" preserveAspectRatio="xMidYMid meet">
  <title>Elysium CRM</title>
  <path fill="#FFFFFF" transform="translate(8 8) scale(1.25)" d="M55 4C57.7 4 58.5 6.8 56.4 7.9L47 13H17L47.1 22C50 22.9 52 25.5 52 28.5V35.7C52 38.1 50.6 40.3 48.4 41.2L44 43V31.5L34 37L32.375 36.499L34 43L16 49H55C57.2 49 59 50.8 59 53V58C59 60.2 57.2 62 55 62H17L9 58.7C6.5 57.7 5 55.5 5 53V49.5C5 46.4 7 43.8 10 43L29.941 35.749L10 29.6C7 28.7 5 26 5 23V17C5 14.4 6.3 12.1 8.5 10.8L17 5.4C19 4.4 20 4 22 4Z"/>
  <path fill="#FFFFFF" d="M108 52.441V20.43H129.434V25.872H114.565V33.599H128.3V38.948H114.565V46.999H129.476V52.441ZM137.367 52.441V20.43H143.931V46.999H157.735V52.441ZM171.071 52.441V40.403L159.216 20.43H166.901L172.311 30.404Q173.141 31.912 173.789 33.387Q174.436 34.862 175.12 36.92H173.684Q174.345 34.842 174.974 33.357Q175.603 31.873 176.392 30.404L181.63 20.43H189.281L177.612 40.403V52.441ZM207.608 52.907Q203.766 52.907 200.919 51.726Q198.071 50.545 196.481 48.229Q194.891 45.913 194.79 42.508H201.172Q201.298 44.127 202.136 45.211Q202.974 46.295 204.374 46.835Q205.774 47.375 207.538 47.375Q209.291 47.375 210.597 46.864Q211.903 46.352 212.628 45.428Q213.354 44.505 213.354 43.295Q213.354 42.189 212.704 41.448Q212.054 40.707 210.824 40.177Q209.593 39.647 207.84 39.232L204.32 38.357Q200.256 37.366 197.951 35.249Q195.646 33.133 195.646 29.64Q195.646 26.747 197.211 24.578Q198.777 22.408 201.495 21.204Q204.213 20 207.69 20Q211.243 20 213.885 21.216Q216.527 22.432 218.004 24.586Q219.481 26.741 219.532 29.552H213.193Q213.006 27.628 211.544 26.57Q210.082 25.512 207.631 25.512Q205.963 25.512 204.782 25.991Q203.601 26.471 202.986 27.311Q202.37 28.152 202.37 29.226Q202.37 30.403 203.087 31.18Q203.804 31.957 204.978 32.445Q206.151 32.933 207.497 33.255L210.385 33.962Q212.405 34.422 214.148 35.198Q215.891 35.973 217.199 37.1Q218.507 38.226 219.234 39.768Q219.962 41.31 219.962 43.324Q219.962 46.235 218.493 48.393Q217.025 50.551 214.263 51.729Q211.5 52.907 207.608 52.907ZM233.879 20.43V52.441H227.314V20.43ZM255.517 52.887Q251.55 52.887 248.574 51.422Q245.598 49.957 243.953 47.327Q242.307 44.697 242.307 41.212V20.43H248.872V40.67Q248.872 42.539 249.701 43.985Q250.53 45.431 252.021 46.259Q253.511 47.088 255.517 47.088Q257.535 47.088 259.026 46.259Q260.518 45.431 261.342 43.985Q262.166 42.539 262.166 40.67V20.43H268.731V41.212Q268.731 44.697 267.079 47.327Q265.428 49.957 262.456 51.422Q259.484 52.887 255.517 52.887ZM277.153 52.441V20.43H287.222L292.404 35.126Q292.73 36.148 293.148 37.786Q293.566 39.424 293.999 41.314Q294.431 43.204 294.808 44.984Q295.185 46.765 295.429 48.084H294.144Q294.398 46.795 294.769 45.024Q295.14 43.253 295.573 41.358Q296.005 39.463 296.422 37.811Q296.84 36.158 297.166 35.126L302.275 20.43H312.366V52.441H305.785V37.349Q305.785 36.302 305.819 34.739Q305.853 33.175 305.902 31.361Q305.952 29.547 305.996 27.702Q306.04 25.856 306.049 24.236H306.474Q306.058 26.02 305.559 27.916Q305.06 29.811 304.559 31.6Q304.058 33.388 303.605 34.877Q303.152 36.366 302.828 37.349L297.53 52.441H292.002L286.619 37.349Q286.295 36.376 285.846 34.902Q285.398 33.428 284.885 31.649Q284.373 29.871 283.863 27.965Q283.353 26.059 282.886 24.236H283.4Q283.42 25.787 283.464 27.613Q283.507 29.438 283.552 31.267Q283.597 33.096 283.636 34.684Q283.675 36.273 283.675 37.349V52.441Z"/>
  <path fill="#FFFFFF" d="M113.067 75.206Q111.616 75.206 110.47 74.546Q109.324 73.887 108.662 72.635Q108 71.382 108 69.61Q108 67.827 108.668 66.573Q109.335 65.319 110.484 64.659Q111.632 64 113.067 64Q113.997 64 114.801 64.259Q115.604 64.519 116.225 65.018Q116.847 65.516 117.245 66.237Q117.642 66.957 117.765 67.878H115.504Q115.426 67.429 115.219 67.079Q115.012 66.73 114.699 66.484Q114.385 66.239 113.983 66.112Q113.582 65.985 113.114 65.985Q112.263 65.985 111.621 66.41Q110.978 66.835 110.623 67.644Q110.269 68.453 110.269 69.61Q110.269 70.788 110.629 71.595Q110.989 72.402 111.628 72.812Q112.267 73.221 113.106 73.221Q113.574 73.221 113.973 73.093Q114.373 72.964 114.691 72.72Q115.008 72.476 115.219 72.125Q115.43 71.774 115.511 71.328H117.773Q117.681 72.088 117.321 72.782Q116.961 73.477 116.357 74.025Q115.754 74.573 114.926 74.89Q114.099 75.206 113.067 75.206ZM130.644 75.06V64.146H134.902Q136.145 64.146 137.016 64.586Q137.887 65.026 138.346 65.825Q138.804 66.625 138.804 67.698Q138.804 68.778 138.34 69.557Q137.876 70.336 136.992 70.751Q136.108 71.166 134.85 71.166H131.967V69.355H134.495Q135.178 69.355 135.62 69.168Q136.063 68.98 136.281 68.612Q136.499 68.244 136.499 67.698Q136.499 67.145 136.281 66.766Q136.063 66.387 135.618 66.189Q135.174 65.991 134.488 65.991H132.882V75.06ZM136.716 75.06 134.064 70.094H136.485L139.198 75.06ZM151.746 75.06V64.146H155.178L156.945 69.157Q157.056 69.505 157.199 70.063Q157.341 70.622 157.489 71.266Q157.636 71.91 157.764 72.517Q157.893 73.124 157.976 73.574H157.538Q157.625 73.134 157.751 72.531Q157.878 71.927 158.025 71.281Q158.172 70.635 158.315 70.072Q158.457 69.508 158.568 69.157L160.31 64.146H163.75V75.06H161.506V69.914Q161.506 69.558 161.518 69.025Q161.53 68.492 161.547 67.873Q161.563 67.255 161.578 66.626Q161.593 65.996 161.597 65.444H161.742Q161.6 66.052 161.43 66.699Q161.259 67.345 161.089 67.954Q160.918 68.564 160.764 69.072Q160.609 69.579 160.499 69.914L158.692 75.06H156.808L154.973 69.914Q154.862 69.583 154.709 69.08Q154.556 68.578 154.382 67.971Q154.207 67.365 154.033 66.715Q153.859 66.066 153.7 65.444H153.875Q153.882 65.973 153.897 66.595Q153.912 67.218 153.927 67.841Q153.942 68.465 153.956 69.006Q153.969 69.547 153.969 69.914V75.06Z"/>
</svg>
